<svg width="32" height="30" viewBox="0 0 32 30" fill="none" xmlns="http://www.w3.org/2000/svg">
<path d="M30.8571 27.4286H27.4286V2.28571C27.4286 1.67951 27.1878 1.09812 26.7591 0.66947C26.3304 0.240816 25.7491 0 25.1429 0H6.85714C6.25093 0 5.66955 0.240816 5.2409 0.66947C4.81224 1.09812 4.57143 1.67951 4.57143 2.28571V27.4286H1.14286C0.839753 27.4286 0.549062 27.549 0.334735 27.7633C0.120408 27.9776 0 28.2683 0 28.5714C0 28.8745 0.120408 29.1652 0.334735 29.3795C0.549062 29.5939 0.839753 29.7143 1.14286 29.7143H30.8571C31.1602 29.7143 31.4509 29.5939 31.6653 29.3795C31.8796 29.1652 32 28.8745 32 28.5714C32 28.2683 31.8796 27.9776 31.6653 27.7633C31.4509 27.549 31.1602 27.4286 30.8571 27.4286ZM21.1429 17.1429C20.8038 17.1429 20.4724 17.0423 20.1905 16.8539C19.9085 16.6656 19.6888 16.3978 19.5591 16.0846C19.4293 15.7714 19.3954 15.4267 19.4615 15.0941C19.5277 14.7616 19.6909 14.4561 19.9307 14.2164C20.1704 13.9766 20.4759 13.8134 20.8084 13.7472C21.141 13.6811 21.4856 13.715 21.7989 13.8448C22.1121 13.9745 22.3799 14.1943 22.5682 14.4762C22.7566 14.7581 22.8571 15.0895 22.8571 15.4286C22.8571 15.8832 22.6765 16.3193 22.355 16.6408C22.0335 16.9622 21.5975 17.1429 21.1429 17.1429Z" fill="black"/>
</svg>
